<?xml version="1.0" encoding="utf-8"?><svg xmlns="http://www.w3.org/2000/svg" xmlns:xlink="http://www.w3.org/1999/xlink"><symbol viewBox="0 -960 960 960" id="arrow_upward" xmlns="http://www.w3.org/2000/svg"><path d="M440-160v-487L216-423l-56-57 320-320 320 320-56 57-224-224v487h-80Z"/></symbol><symbol viewBox="0 0 50 50" id="facebook" xmlns="http://www.w3.org/2000/svg"><path d="M25 3C12.85 3 3 12.85 3 25c0 11.03 8.125 20.137 18.712 21.728V30.831h-5.443v-5.783h5.443V21.2c0-6.371 3.104-9.168 8.399-9.168 2.536 0 3.877.188 4.512.274v5.048h-3.612c-2.248 0-3.033 2.131-3.033 4.533v3.161h6.588l-.894 5.783h-5.694v15.944C38.716 45.318 47 36.137 47 25c0-12.15-9.85-22-22-22z"/></symbol><symbol viewBox="0 -960 960 960" id="play_circle" xmlns="http://www.w3.org/2000/svg"><path d="m380-300 280-180-280-180v360ZM480-80q-83 0-156-31.5T197-197q-54-54-85.5-127T80-480q0-83 31.5-156T197-763q54-54 127-85.5T480-880q83 0 156 31.5T763-763q54 54 85.5 127T880-480q0 83-31.5 156T763-197q-54 54-127 85.5T480-80Zm0-80q134 0 227-93t93-227q0-134-93-227t-227-93q-134 0-227 93t-93 227q0 134 93 227t227 93Zm0-320Z"/></symbol><symbol viewBox="0 -960 960 960" id="settings" xmlns="http://www.w3.org/2000/svg"><path d="m382-80-18.67-126.67q-17-6.33-34.83-16.66-17.83-10.34-32.17-21.67L178-192.33 79.33-365l106.34-78.67q-1.67-8.33-2-18.16-.34-9.84-.34-18.17 0-8.33.34-18.17.33-9.83 2-18.16L79.33-595 178-767.67 296.33-715q14.34-11.33 32.34-21.67 18-10.33 34.66-16L382-880h196l18.67 126.67q17 6.33 35.16 16.33 18.17 10 31.84 22L782-767.67 880.67-595l-106.34 77.33q1.67 9 2 18.84.34 9.83.34 18.83 0 9-.34 18.5Q776-452 774-443l106.33 78-98.66 172.67-118-52.67q-14.34 11.33-32 22-17.67 10.67-35 16.33L578-80H382Zm55.33-66.67h85l14-110q32.34-8 60.84-24.5T649-321l103.67 44.33 39.66-70.66L701-415q4.33-16 6.67-32.17Q710-463.33 710-480q0-16.67-2-32.83-2-16.17-7-32.17l91.33-67.67-39.66-70.66L649-638.67q-22.67-25-50.83-41.83-28.17-16.83-61.84-22.83l-13.66-110h-85l-14 110q-33 7.33-61.5 23.83T311-639l-103.67-44.33-39.66 70.66L259-545.33Q254.67-529 252.33-513 250-497 250-480q0 16.67 2.33 32.67 2.34 16 6.67 32.33l-91.33 67.67 39.66 70.66L311-321.33q23.33 23.66 51.83 40.16 28.5 16.5 60.84 24.5l13.66 110Zm43.34-200q55.33 0 94.33-39T614-480q0-55.33-39-94.33t-94.33-39q-55.67 0-94.5 39-38.84 39-38.84 94.33t38.84 94.33q38.83 39 94.5 39ZM480-480Z"/></symbol><symbol viewBox="0 0 50 50" id="twitter" xmlns="http://www.w3.org/2000/svg"><path d="M11 4c-3.854 0-7 3.146-7 7v28c0 3.854 3.146 7 7 7h28c3.854 0 7-3.146 7-7V11c0-3.854-3.146-7-7-7H11zm0 2h28c2.774 0 5 2.226 5 5v28c0 2.774-2.226 5-5 5H11c-2.774 0-5-2.226-5-5V11c0-2.774 2.226-5 5-5zm2.086 7 9.223 13.104L13 37h2.5l7.938-9.293L29.977 37h7.937L27.79 22.613 36 13h-2.5l-6.84 8.01L21.023 13h-7.937zm3.828 2h3.065l14.107 20H31.02L16.914 15z"/></symbol></svg>